# xmcd
#
# Track frame offsets:
#	150
#	17719
#	31166
#	49309
#	66679
#	83294
#	98301
#	115691
#	133886
#	147171
#	163674
#	181600
#	198824
#	213374
#	227006
#	241506
#	255866
#	272309
#	284001
#	299216
#
# Disc length: 4298 seconds
#
# Revision: 1
# Processed by: cddbd v1.5PL3 Copyright (c) Steve Scherf et al.
# Submitted via: audiograbber 1.82.01
#
DISCID=0f10c814
DTITLE=Eric Clapton - Archives Pathfinder - Outtakes - Mid Valley Records - Dis
DTITLE=c 2
DYEAR=1900
DGENRE=
TTITLE0=Eric Clapton - Lonesome and a Long Way From Home (Alternate Mix #1)
TTITLE1=Eric Clapton - Easy Now (Alternate Mix #1)
TTITLE2=Eric Clapton - Bad Boy (Alternate Mix #3 with different vocal take 2)
TTITLE3=Eric Clapton - Bad Boy (Alternate Mix #4 with different vocal take 2)
TTITLE4=Eric Clapton - Lonesome and a Long Way From Home (Alternate Mix #2)
TTITLE5=Eric Clapton - After Midnight (Alternate Mix #2)
TTITLE6=Eric Clapton - Lovin' You Lovin' Me (Alternate Mix #2)
TTITLE7=Eric Clapton - Don't Know Why (Alternate Mix)
TTITLE8=Eric Clapton - Bottle of Red Wine (Alternate Mix with additional guitar
TTITLE8=play)
TTITLE9=Eric Clapton - Slunky (Monaural Version)
TTITLE10=Eric Clapton - Bad Boy (Monaural Version)
TTITLE11=Eric Clapton - Lonesome and a Long Way From Home (Monaural Version)
TTITLE12=Eric Clapton - After Midnight (Monaural Version)
TTITLE13=Eric Clapton - Easy Now (Monaural Version)
TTITLE14=Eric Clapton - Blues Power (Monaural Version)
TTITLE15=Eric Clapton - Bottle of Red Wine (Monaural Version)
TTITLE16=Eric Clapton - Lovin' You Lovin' Me (Monaural Version)
TTITLE17=Eric Clapton - Track18
TTITLE18=Eric Clapton - Track19
TTITLE19=Eric Clapton - Track20
EXTD=
EXTT0=
EXTT1=
EXTT2=
EXTT3=
EXTT4=
EXTT5=
EXTT6=
EXTT7=
EXTT8=
EXTT9=
EXTT10=
EXTT11=
EXTT12=
EXTT13=
EXTT14=
EXTT15=
EXTT16=
EXTT17=
EXTT18=
EXTT19=
PLAYORDER=
